<svg width="249" height="256" viewBox="0 0 249 256" fill="none" xmlns="http://www.w3.org/2000/svg">
<path d="M219.751 52.6296L155.251 209.13C155.251 209.13 150.668 216.793 145.751 219.63C140.44 222.693 130.251 222.63 130.251 222.63C130.251 222.63 42.7509 212.63 13.7508 209.13C8.20644 208.46 6.70635 203.684 5.25084 197.63C3.84483 191.781 8.75104 182.13 8.75104 182.13L70.7509 32.1296C70.7509 32.1296 74.2609 26.3323 78.7509 24.1296C83.7708 21.667 92.2509 21.1296 92.2509 21.1296L207.751 33.1296C207.751 33.1296 214.377 35.1296 217.751 40.1296C221.751 46.0569 219.751 52.6296 219.751 52.6296Z" fill="#DF8731" stroke="#DF8731" stroke-width="10" stroke-linejoin="round"/>
<path d="M223.751 53L158.958 209.5C158.958 209.5 153.349 219.164 148.41 222C143.075 225.064 132.84 226 132.84 226C132.84 226 42.4305 216.5 13.2987 213C7.7291 212.331 4.25779 207.5 2.75098 199.5" stroke="#935110" stroke-width="4" stroke-linecap="round" stroke-linejoin="round"/>
<path d="M83.7513 32.1296L205.251 46.1296C205.251 46.1296 164.251 155.13 156.251 165.63C150.968 172.563 138.751 172.13 138.751 172.13L14.2513 158.63C14.2513 158.63 7.75122 156.13 7.75122 147.13C7.75122 144.159 8.6263 142.064 9.43123 140.765C10.1417 139.618 11.508 139.208 12.8495 139.348L34.7513 141.63L83.7513 32.1296Z" fill="white"/>
<path d="M34.7513 141.63L83.7513 32.1296L205.251 46.1296C205.251 46.1296 164.251 155.13 156.251 165.63C150.968 172.563 138.751 172.13 138.751 172.13M34.7513 141.63L138.251 153.13C138.251 153.13 135.335 160.221 135.251 163.63C135.167 167.039 138.751 172.13 138.751 172.13M34.7513 141.63L12.8495 139.348C11.508 139.208 10.1417 139.618 9.43123 140.765C8.6263 142.064 7.75122 144.159 7.75122 147.13C7.75122 156.13 14.2513 158.63 14.2513 158.63L138.751 172.13" stroke="white" stroke-width="10" stroke-linejoin="round"/>
<path d="M205.251 46.1296C205.251 46.1296 164.251 155.13 156.251 165.63C150.968 172.563 138.751 172.13 138.751 172.13C138.751 172.13 135.167 167.039 135.251 163.63C135.335 160.221 138.251 153.13 138.251 153.13L34.7512 141.63L10.7512 139.13" stroke="#EAEAEA" stroke-width="10" stroke-linecap="round" stroke-linejoin="round"/>
<path d="M88.751 60.1296L174.751 69.1296" stroke="#121212" stroke-width="10" stroke-linecap="round" stroke-linejoin="round"/>
<path d="M63.251 116.63L149.251 125.63" stroke="#121212" stroke-width="10" stroke-linecap="round" stroke-linejoin="round"/>
<path d="M73.251 97.6296L159.251 106.63" stroke="#121212" stroke-width="10" stroke-linecap="round" stroke-linejoin="round"/>
<path d="M81.251 78.6296L167.251 87.6296" stroke="#121212" stroke-width="10" stroke-linecap="round" stroke-linejoin="round"/>
<path d="M140.252 11.6298C140.252 11.6298 127.406 9.96638 120.752 11.6298C114.751 13.1298 109.251 32.4629 112.251 37.1298C114.251 40.2405 166.251 44.6298 170.251 43.1298C180.951 39.1173 182.3 20.179 179.751 17.6298C177.751 15.6298 163.252 13.1298 163.252 13.1298C163.252 13.1298 167.172 2.50527 155.252 1.12979C142.251 -0.370361 140.252 11.6298 140.252 11.6298Z" fill="#727276" stroke="#727276" stroke-width="2" stroke-linejoin="round"/>
<path d="M179.172 17.6296C181.661 20.0995 180.343 38.4482 169.894 42.3357C165.987 43.789 115.204 39.5363 113.251 36.5225" stroke="#585858" stroke-width="3" stroke-linecap="round" stroke-linejoin="round"/>
<mask id="mask0_873_454" style="mask-type:alpha" maskUnits="userSpaceOnUse" x="132" y="140" width="117" height="116">
<rect x="132.751" y="140" width="116" height="116" fill="#D9D9D9"/>
</mask>
<g mask="url(#mask0_873_454)">
<path d="M183.984 220.233L218.059 186.158L211.293 179.392L183.984 206.7L170.209 192.925L163.443 199.692L183.984 220.233ZM190.751 246.333C184.065 246.333 177.782 245.065 171.901 242.527C166.021 239.99 160.905 236.546 156.555 232.196C152.205 227.846 148.761 222.731 146.224 216.85C143.686 210.97 142.418 204.686 142.418 198C142.418 191.314 143.686 185.031 146.224 179.15C148.761 173.27 152.205 168.154 156.555 163.804C160.905 159.454 166.021 156.01 171.901 153.473C177.782 150.935 184.065 149.667 190.751 149.667C197.437 149.667 203.721 150.935 209.601 153.473C215.482 156.01 220.597 159.454 224.947 163.804C229.297 168.154 232.741 173.27 235.278 179.15C237.816 185.031 239.084 191.314 239.084 198C239.084 204.686 237.816 210.97 235.278 216.85C232.741 222.731 229.297 227.846 224.947 232.196C220.597 236.546 215.482 239.99 209.601 242.527C203.721 245.065 197.437 246.333 190.751 246.333ZM190.751 236.667C201.545 236.667 210.689 232.921 218.18 225.429C225.672 217.938 229.418 208.795 229.418 198C229.418 187.206 225.672 178.063 218.18 170.571C210.689 163.079 201.545 159.333 190.751 159.333C179.957 159.333 170.814 163.079 163.322 170.571C155.83 178.063 152.084 187.206 152.084 198C152.084 208.795 155.83 217.938 163.322 225.429C170.814 232.921 179.957 236.667 190.751 236.667Z" fill="#4CAF50"/>
</g>
</svg>
