<svg width="226" height="228" viewBox="0 0 226 228" fill="none" xmlns="http://www.w3.org/2000/svg">
<path d="M219.751 52.6296L155.251 209.13C155.251 209.13 150.668 216.793 145.751 219.63C140.44 222.693 130.251 222.63 130.251 222.63C130.251 222.63 42.7509 212.63 13.7508 209.13C8.20644 208.46 6.70635 203.684 5.25084 197.63C3.84483 191.781 8.75104 182.13 8.75104 182.13L70.7509 32.1296C70.7509 32.1296 74.2609 26.3323 78.7509 24.1296C83.7708 21.667 92.2509 21.1296 92.2509 21.1296L207.751 33.1296C207.751 33.1296 214.377 35.1296 217.751 40.1296C221.751 46.0569 219.751 52.6296 219.751 52.6296Z" fill="#DF8731" stroke="#DF8731" stroke-width="10" stroke-linejoin="round"/>
<path d="M223.751 53L158.958 209.5C158.958 209.5 153.349 219.164 148.41 222C143.075 225.064 132.839 226 132.839 226C132.839 226 42.4304 216.5 13.2986 213C7.72898 212.331 4.25767 207.5 2.75085 199.5" stroke="#935110" stroke-width="4" stroke-linecap="round" stroke-linejoin="round"/>
<path d="M83.7511 32.1296L205.251 46.1296C205.251 46.1296 164.251 155.13 156.251 165.63C150.968 172.563 138.751 172.13 138.751 172.13L14.2511 158.63C14.2511 158.63 7.7511 156.13 7.7511 147.13C7.7511 144.159 8.62618 142.064 9.43111 140.765C10.1415 139.618 11.5078 139.208 12.8494 139.348L34.7511 141.63L83.7511 32.1296Z" fill="white"/>
<path d="M34.7511 141.63L83.7511 32.1296L205.251 46.1296C205.251 46.1296 164.251 155.13 156.251 165.63C150.968 172.563 138.751 172.13 138.751 172.13M34.7511 141.63L138.251 153.13C138.251 153.13 135.335 160.221 135.251 163.63C135.167 167.039 138.751 172.13 138.751 172.13M34.7511 141.63L12.8494 139.348C11.5078 139.208 10.1415 139.618 9.43111 140.765C8.62618 142.064 7.7511 144.159 7.7511 147.13C7.7511 156.13 14.2511 158.63 14.2511 158.63L138.751 172.13" stroke="white" stroke-width="10" stroke-linejoin="round"/>
<path d="M205.251 46.1296C205.251 46.1296 164.251 155.13 156.251 165.63C150.968 172.563 138.751 172.13 138.751 172.13C138.751 172.13 135.167 167.039 135.251 163.63C135.335 160.221 138.251 153.13 138.251 153.13L34.7511 141.63L10.7511 139.13" stroke="#EAEAEA" stroke-width="10" stroke-linecap="round" stroke-linejoin="round"/>
<path d="M88.7509 60.1296L174.751 69.1296" stroke="#121212" stroke-width="10" stroke-linecap="round" stroke-linejoin="round"/>
<path d="M63.2509 116.63L149.251 125.63" stroke="#121212" stroke-width="10" stroke-linecap="round" stroke-linejoin="round"/>
<path d="M73.2509 97.6296L159.251 106.63" stroke="#121212" stroke-width="10" stroke-linecap="round" stroke-linejoin="round"/>
<path d="M81.2509 78.6296L167.251 87.6296" stroke="#121212" stroke-width="10" stroke-linecap="round" stroke-linejoin="round"/>
<path d="M140.252 11.6298C140.252 11.6298 127.406 9.96638 120.752 11.6298C114.751 13.1298 109.251 32.4629 112.251 37.1298C114.251 40.2405 166.251 44.6298 170.251 43.1298C180.951 39.1173 182.3 20.179 179.751 17.6298C177.751 15.6298 163.252 13.1298 163.252 13.1298C163.252 13.1298 167.172 2.50527 155.252 1.12979C142.251 -0.370361 140.252 11.6298 140.252 11.6298Z" fill="#727276" stroke="#727276" stroke-width="2" stroke-linejoin="round"/>
<path d="M179.171 17.6296C181.661 20.0995 180.343 38.4482 169.894 42.3357C165.987 43.789 115.204 39.5363 113.251 36.5225" stroke="#585858" stroke-width="3" stroke-linecap="round" stroke-linejoin="round"/>
</svg>
